<?xml version="1.0" encoding="UTF-8"?>
<!DOCTYPE svg PUBLIC "-//W3C//DTD SVG 1.1//EN" "http://www.w3.org/Graphics/SVG/1.1/DTD/svg11.dtd">
<!-- Creator: CorelDRAW 2017 -->
<svg xmlns="http://www.w3.org/2000/svg" xml:space="preserve" width="200mm" height="200mm" version="1.1" style="shape-rendering:geometricPrecision; text-rendering:geometricPrecision; image-rendering:optimizeQuality; fill-rule:evenodd; clip-rule:evenodd"
viewBox="0 0 200130.3 200130.3"
 xmlns:xlink="http://www.w3.org/1999/xlink">
 <defs>
  <style type="text/css">
   <![CDATA[
    .fil0 {fill:#393185}
   ]]>
  </style>
 </defs>
 <g id="Слой_x0020_1">
  <metadata id="CorelCorpID_0Corel-Layer"/>
  <path class="fil0" d="M-0 0l200130.3 0 0 200130.3 -200130.3 0 0 -200130.3zm157285.6 128219.8c3650.7,0 5475.5,2386.7 5475.5,5897.2 0,3510.3 -1824.8,5896.9 -5475.5,5896.9l-19588.3 0 0 -11794.2 19588.3 0zm-1263.8 -18887c2878.4,0 4774.3,1767.2 4774.3,4950.5 0,3182.2 -1895.9,4948.4 -4774.3,4948.4l-18324.4 0 0 -9898.9 18324.4 0zm-28013.5 39948.5l29487.7 0c9618.9,0 18184,-4984.7 18184,-14743.7 0,-4633.2 -1965.9,-8915.8 -6600.3,-11373.6 3440.6,-2808.4 4634.4,-5558.4 4634.4,-9092.3 0,-10214.6 -9056.8,-14006.5 -17833.7,-14006.5l-27872.1 0c-1825.6,0 -3229.8,1474.5 -3229.8,3229.9l0 26246.1c0,10821.3 -5562.2,17532.7 -16393.5,19374.8 -2150.2,365.3 -526.8,359.6 11.7,365.3l19611.6 0zm-39738.3 -46255.8l0 26585.7c0,6752.1 2808.1,9982 9057.1,9982l5476.2 0c6248.7,0 9057.2,-3229.9 9057.2,-9982l0 -26585.7 0 -2960.3 -23590.5 0 0 2960.3zm-52655.6 -2960.3l-3195 0 3195 0zm36438.2 49216.1l-6389.8 0 6389.8 0zm20502.6 -259.1c-10015.9,-2419.7 -17095.3,-7190.4 -17203.3,-19199.8l0 -26515.7c0,-1825.9 -1474.3,-3241.6 -3299.3,-3241.6l-6389.8 0c-1754.8,0 -3229,1415.7 -3229,3241.6l0 15504.4 -23590.5 0 0 -15504.4c0,-1825.9 -1474.5,-3241.6 -3229,-3241.6l-6388.9 0c-1825.7,0 -3300.1,1415.7 -3300.1,3241.6l0 42745.5c0,1754.8 1474.5,3229 3300.1,3229l6388.9 0c1754.5,0 3229,-1403.9 3229,-3158.8l0 -17622.4 23590.5 0 0 17622.4c0,1754.8 1474.2,3158.8 3229,3158.8l6389.8 0 20488.2 0c398.3,0 1025.4,-15.6 14.4,-259.1zm-21032.4 -83611.3l3018.9 -11069.2c1123.2,-4224.5 4633.8,-6903.8 9056.6,-6903.8l9759.3 0 0 17973 -21834.7 0zm-2527.4 9688.8l24362.2 0 0 8635.4c0,1820.2 1396.1,3221.5 3214,3229.6l3.6 0 11.7 0.2 2.1 0 1.8 0 2.1 0.3 1.8 0 2.1 0 1.8 0 2.1 0 1.8 0 2.1 0 2.1 0 0 0 1.8 0 2.1 0 1.8 0 2.1 0 1.8 0 2.1 0 1.8 0 2.1 0 27.3 0.4 29487.1 0c9618.5,0 18183.9,-4984.7 18183.9,-14743.8 0,-4633.4 -1965.8,-8916 -6599.6,-11373.2 3440.2,-2808.5 4633.8,-5558.4 4633.8,-9092.1 0,-10214.8 -9056.9,-14006.4 -17832.8,-14006.4l-21124.6 0 -2.1 0 -2.4 -0.3 -2.1 0 -2.4 0 -2.1 0 -2.1 0 -2.1 0 -2.4 0 -2.1 0 -2.1 0 -2.1 0 -6.9 -0.3 -2.1 0 -2.1 0 -2.4 0 -2.1 0 -2.4 0 -28.5 -0.3 -18464.9 0c-9969.4,0 -19868.6,2457.3 -22747.2,13351.2l-8635.4 32704.9c-491.4,1755.4 561.6,3159.5 2387,3159.5l6740.1 0c1825.4,0 3580.5,-1404 4071.9,-3229.6l2317.1 -8635.4zm37342.9 -9196.5l19588 0c3650.7,0 5476.1,2387.3 5476.1,5897.5 0,3510.5 -1825.4,5897.5 -5476.1,5897.5l-19588 0 0 -11795.1zm0 -8986.4l0 -9899.4 18324.2 0c2878.4,0 4773.9,1766.8 4773.9,4949.6 0,3183 -1895.5,4949.8 -4773.9,4949.8l-18324.2 0z"/>
 </g>
</svg>
